<svg xmlns="http://www.w3.org/2000/svg" viewBox="0 0 180.927 50.986" preserveAspectRatio="none"><path d="M179.931,29.22c-.522,12.986-2.3,19.928-5.536,20.51l-5.567-.091c-3.425-.056-8.563-.14-15.425.064l-19.052-.312c-13.915-.227-41.981-.052-84.192.206-17.791.344-29.578.468-35.572.369C.246,49.732-.509,47.185.166,30.4c.611-15.2,2.24-23.734,5.1-25.588C9.686,1.4,41.871.022,101.634.048c10.5-.147,23.346.063,38.544.312,22.478.368,34.854,1.522,37.12,3.778.831.649,1.559,3.829,2.2,9.227a150.739,150.739,0,0,1,.433,15.856" transform="translate(0.436 0.487)" fill="none" stroke="#407466" stroke-width="1" vector-effect='non-scaling-stroke'/></svg>
